<svg aria-hidden="true" style="position: absolute; width: 0; height: 0; overflow: hidden;" version="1.1" xmlns="http://www.w3.org/2000/svg" xmlns:xlink="http://www.w3.org/1999/xlink">
<defs>
<symbol id="icon-antenna" viewBox="0 0 32 32">
<path fill="#212121" style="fill: var(--color1, #212121)" d="M30.773 22.098l-8.443-8.505 0.937-4.615c0.242 0.094 0.499 0.144 0.758 0.146h0.006c1.192 0.014 2.17-0.941 2.184-2.133s-0.941-2.17-2.133-2.184c-1.192-0.014-2.17 0.941-2.184 2.133-0.003 0.255 0.039 0.509 0.125 0.749l-4.96 0.605-8.091-8.133c-0.099-0.101-0.235-0.159-0.377-0.16-0.14 0.001-0.274 0.056-0.373 0.155l-1.513 1.504c-0.208 0.208-0.208 0.546 0 0.754l0.814 0.826c-3.153 5.798-2.129 12.978 2.519 17.663 0.043 0.041 0.092 0.074 0.146 0.098-0.034 0.18-0.051 0.364-0.052 0.547v6.187h-6.4c-1.472 0.002-2.665 1.195-2.667 2.667v1.067c0 0.295 0.239 0.533 0.533 0.533h24.533c0.295 0 0.533-0.239 0.533-0.533v-1.067c-0.002-1.472-1.195-2.665-2.667-2.667h-6.4v-2.742c1.003 0.21 2.024 0.317 3.049 0.32 2.458-0.003 4.877-0.615 7.040-1.783l0.818 0.823c0.099 0.101 0.235 0.159 0.377 0.16 0.14-0.001 0.274-0.056 0.373-0.155l1.513-1.504c0.208-0.208 0.208-0.546 0-0.754zM23.28 6.233c0.418-0.415 1.093-0.414 1.508 0.004s0.414 1.093-0.004 1.508c-0.2 0.199-0.47 0.31-0.752 0.31h-0.003c-0.589-0.003-1.064-0.483-1.061-1.072 0.002-0.282 0.115-0.552 0.314-0.751h-0.002zM22.024 9.738l-0.598 2.946-1.175-1.182 1.774-1.763zM21.419 8.836l-1.92 1.909-1.485-1.493 3.405-0.415zM24.004 28.8c0.884 0 1.6 0.716 1.6 1.6v0.533h-23.467v-0.533c0-0.884 0.716-1.6 1.6-1.6h20.267zM16.537 26.667v1.067h-5.333v-1.067h5.333zM11.204 25.6v-4.053c0-1.294 1.196-2.347 2.667-2.347s2.667 1.053 2.667 2.347v4.053h-5.333zM17.604 23.904v-2.357c0-1.882-1.675-3.413-3.733-3.413-1.331-0.020-2.576 0.657-3.281 1.786-4.058-4.274-4.971-10.645-2.279-15.887l18.602 18.708c-2.872 1.461-6.165 1.873-9.309 1.163zM28.893 23.22l-21.057-21.181 0.755-0.752 7.935 7.98c0.004 0 0.006 0.007 0.010 0.010l13.115 13.191-0.757 0.752z"></path>
<path fill="#2196f3" style="fill: var(--color2, #2196f3)" d="M13.876 20.267h-0.005c-0.884-0.001-1.601 0.714-1.602 1.598s0.714 1.601 1.598 1.602h0.005c0.884 0.001 1.601-0.714 1.602-1.598s-0.714-1.601-1.598-1.602zM14.249 22.245c-0.1 0.1-0.236 0.156-0.378 0.155-0.295-0.002-0.532-0.242-0.531-0.536 0.001-0.141 0.057-0.276 0.157-0.375s0.233-0.154 0.373-0.155c0.295 0.002 0.532 0.241 0.53 0.536-0.001 0.141-0.057 0.276-0.157 0.375h0.005z"></path>
</symbol>
<symbol id="icon-close" viewBox="0 0 32 32">
<path d="M26.667 7.303l-1.97-1.97-7.808 7.808-7.808-7.808-1.97 1.97 7.808 7.808-7.808 7.808 1.97 1.97 7.808-7.808 7.808 7.808 1.97-1.97-7.808-7.808 7.808-7.808z"></path>
</symbol>
<symbol id="icon-burger-menu" viewBox="0 0 32 32">
<path d="M6.4 11.734v-2.134h19.2v2.134h-19.2zM6.4 17.066h19.2v-2.133h-19.2v2.133zM6.4 22.4h19.2v-2.134h-19.2v2.134z"></path>
</symbol>
<symbol id="icon-astronaut" viewBox="0 0 32 32">
<path fill="#2196f3" style="fill: var(--color2, #2196f3)" d="M31.974 4.524c-0.063-0.193-0.229-0.333-0.43-0.363l-1.91-0.278-0.855-1.731c-0.179-0.365-0.777-0.365-0.956 0l-0.855 1.731-1.91 0.278c-0.201 0.029-0.367 0.17-0.431 0.363-0.062 0.193-0.011 0.405 0.135 0.547l1.383 1.348-0.326 1.903c-0.034 0.2 0.048 0.402 0.212 0.522 0.166 0.121 0.382 0.135 0.562 0.040l1.709-0.899 1.709 0.899c0.078 0.041 0.164 0.061 0.249 0.061 0.11 0 0.221-0.034 0.314-0.102 0.164-0.119 0.246-0.322 0.212-0.522l-0.326-1.903 1.383-1.348c0.145-0.142 0.197-0.354 0.135-0.547zM29.511 5.851c-0.125 0.122-0.183 0.299-0.153 0.472l0.191 1.114-1-0.526c-0.078-0.041-0.163-0.061-0.249-0.061s-0.17 0.020-0.249 0.061l-1.001 0.526 0.191-1.114c0.030-0.173-0.028-0.349-0.153-0.472l-0.81-0.789 1.119-0.163c0.174-0.025 0.324-0.134 0.402-0.292l0.5-1.013 0.5 1.013c0.078 0.157 0.228 0.267 0.402 0.292l1.119 0.163-0.809 0.789z"></path>
<path fill="#2196f3" style="fill: var(--color2, #2196f3)" d="M26.134 20.522h-1.067v1.067h1.067v-1.067z"></path>
<path fill="#2196f3" style="fill: var(--color2, #2196f3)" d="M26.134 22.656h-1.067v1.067h1.067v-1.067z"></path>
<path fill="#2196f3" style="fill: var(--color2, #2196f3)" d="M27.2 21.589h-1.067v1.067h1.067v-1.067z"></path>
<path fill="#2196f3" style="fill: var(--color2, #2196f3)" d="M25.067 21.589h-1.067v1.067h1.067v-1.067z"></path>
<path fill="#2196f3" style="fill: var(--color2, #2196f3)" d="M22.4 26.389h-1.067v1.067h1.067v-1.067z"></path>
<path fill="#2196f3" style="fill: var(--color2, #2196f3)" d="M22.4 28.522h-1.067v1.067h1.067v-1.067z"></path>
<path fill="#2196f3" style="fill: var(--color2, #2196f3)" d="M23.467 27.456h-1.067v1.067h1.067v-1.067z"></path>
<path fill="#2196f3" style="fill: var(--color2, #2196f3)" d="M21.333 27.456h-1.067v1.067h1.067v-1.067z"></path>
<path fill="#2196f3" style="fill: var(--color2, #2196f3)" d="M16 24.256h-1.067v1.067h1.067v-1.067z"></path>
<path fill="#2196f3" style="fill: var(--color2, #2196f3)" d="M16 26.389h-1.067v1.067h1.067v-1.067z"></path>
<path fill="#2196f3" style="fill: var(--color2, #2196f3)" d="M17.067 25.322h-1.067v1.067h1.067v-1.067z"></path>
<path fill="#2196f3" style="fill: var(--color2, #2196f3)" d="M14.933 25.322h-1.067v1.067h1.067v-1.067z"></path>
<path fill="#2196f3" style="fill: var(--color2, #2196f3)" d="M5.867 6.122h-1.067v1.067h1.067v-1.067z"></path>
<path fill="#2196f3" style="fill: var(--color2, #2196f3)" d="M5.867 8.255h-1.067v1.067h1.067v-1.067z"></path>
<path fill="#2196f3" style="fill: var(--color2, #2196f3)" d="M6.933 7.189h-1.067v1.067h1.067v-1.067z"></path>
<path fill="#2196f3" style="fill: var(--color2, #2196f3)" d="M4.8 7.189h-1.067v1.067h1.067v-1.067z"></path>
<path fill="#212121" style="fill: var(--color1, #212121)" d="M24.715 14.159c-0.287-0.388-0.709-0.637-1.188-0.705-0.481-0.068-0.956 0.058-1.34 0.352l-1.252 0.96-1.898 1.417-1.358-0.541c2.421-1.086 4.114-3.508 4.114-6.32 0-3.823-3.123-6.933-6.961-6.933s-6.961 3.11-6.961 6.933c0 1.386 0.414 2.674 1.12 3.758l-2.764-0.024c-0.002 0-0.003 0-0.005 0-0.009 0-0.015 0.004-0.023 0.005-0.053 0.002-0.105 0.013-0.155 0.031-0.013 0.005-0.026 0.008-0.038 0.013-0.006 0.003-0.013 0.003-0.019 0.006l-3.233 1.596c-0.001 0-0.001 0-0.001 0.001l-1.893 0.911c-0.021 0.009-0.042 0.021-0.063 0.035-0.755 0.502-1.012 1.489-0.598 2.295 0.22 0.429 0.595 0.745 1.056 0.889 0.178 0.055 0.359 0.083 0.539 0.083 0.29 0 0.577-0.071 0.839-0.211l1.388-0.738 2.264-1.169 1.357-0.008-5.442 5.416c-0.001 0.001-0.001 0.001-0.002 0.001l-1.339 1.333c-0.316 0.315-0.49 0.732-0.49 1.178s0.174 0.863 0.49 1.179c0.325 0.323 0.752 0.485 1.179 0.485s0.854-0.162 1.18-0.485l1.314-1.309 1.741-1.3 0.901 0.897-1.762 1.754c-0 0.001-0.001 0.001-0.002 0.001l-1.339 1.333c-0.316 0.315-0.49 0.732-0.49 1.178s0.174 0.863 0.49 1.179c0.325 0.323 0.753 0.485 1.18 0.485s0.855-0.162 1.18-0.485l3.482-3.467c0.001-0.001 0.001-0.001 0.001-0.002l1.010-1-0.004-0.004c0.006-0.006 0.015-0.009 0.022-0.015l5.166-5.658 3.471 0.494c0.025 0.004 0.050 0.005 0.075 0.005 0.065 0 0.127-0.015 0.187-0.038 0.018-0.006 0.033-0.015 0.050-0.023 0.019-0.010 0.039-0.015 0.058-0.027l3.213-2.133c0.012-0.008 0.018-0.021 0.029-0.029 0.013-0.010 0.029-0.014 0.041-0.026l1.271-1.191c0.662-0.62 0.753-1.635 0.212-2.362zM2.13 17.77c-0.173 0.093-0.37 0.111-0.558 0.052-0.187-0.058-0.338-0.186-0.427-0.358-0.161-0.314-0.068-0.695 0.214-0.902l1.314-0.632 0.449 1.312-0.992 0.528zM5.628 15.942l-1.548 0.8-0.439-1.283 2.027-1.001-0.040 1.484zM20.727 9.322c0 0.918-0.219 1.785-0.599 2.559l-4.181-1.899c-0.044-0.573-0.341-1.075-0.788-1.388l1.464-4.86c2.378 0.756 4.105 2.974 4.105 5.588zM8.938 9.322c0-3.235 2.644-5.867 5.894-5.867 0.253 0 0.5 0.021 0.745 0.052l-1.432 4.754c-0.019-0.001-0.037-0.006-0.057-0.006-1.033 0-1.873 0.837-1.873 1.867s0.84 1.867 1.873 1.867c0.694 0 1.294-0.383 1.618-0.945l3.862 1.755c-1.075 1.446-2.795 2.39-4.737 2.39-3.25 0-5.894-2.632-5.894-5.867zM14.894 10.122c0 0.441-0.362 0.8-0.806 0.8s-0.806-0.359-0.806-0.8c0-0.441 0.362-0.8 0.806-0.8s0.806 0.359 0.806 0.8zM2.465 25.146c-0.236 0.234-0.619 0.234-0.854 0.001-0.114-0.114-0.176-0.263-0.176-0.423s0.062-0.309 0.176-0.421l0.962-0.958 0.851 0.848-0.959 0.955zM5.679 28.88c-0.236 0.234-0.619 0.235-0.855 0.001-0.114-0.114-0.176-0.263-0.176-0.423s0.062-0.309 0.176-0.421l0.963-0.959 0.852 0.848-0.96 0.955zM9.16 25.411c-0.001 0-0.001 0-0.002 0.001l-1.765 1.76-0.852-0.848 1.763-1.755c0 0 0 0 0-0s0.001-0.001 0.002-0.001c0.040-0.040 0.065-0.088 0.090-0.135 0.007-0.014 0.020-0.026 0.026-0.040 0.017-0.041 0.019-0.085 0.026-0.129 0.003-0.025 0.014-0.047 0.014-0.073 0-0.036-0.013-0.070-0.020-0.106-0.006-0.032-0.006-0.065-0.019-0.095-0.020-0.050-0.055-0.094-0.091-0.138-0.010-0.012-0.014-0.027-0.025-0.038 0 0 0 0-0.001 0s-0.001-0.002-0.001-0.002l-1.607-1.6c-0.017-0.017-0.039-0.024-0.058-0.038-0.028-0.022-0.055-0.042-0.087-0.058-0.030-0.015-0.061-0.024-0.093-0.033-0.034-0.010-0.067-0.017-0.103-0.020-0.033-0.002-0.063 0.001-0.095 0.005-0.036 0.004-0.069 0.009-0.104 0.020-0.034 0.011-0.063 0.027-0.094 0.045-0.020 0.011-0.042 0.015-0.061 0.029l-1.773 1.324-0.901-0.897 2.399-2.386 4.361 4.289-0.928 0.919zM15.979 18.394c-0.015-0.002-0.030 0.004-0.045 0.003-0.039-0.002-0.076 0.001-0.115 0.007-0.030 0.005-0.059 0.011-0.088 0.021-0.034 0.012-0.065 0.028-0.097 0.047-0.030 0.018-0.057 0.037-0.083 0.061-0.013 0.011-0.028 0.017-0.040 0.029l-4.698 5.146-4.328-4.257 2.833-2.818c0.209-0.208 0.21-0.546 0.002-0.755-0.105-0.105-0.243-0.157-0.381-0.156v-0.001l-2.219 0.013 0.028-1.607 3.104 0.027c1.265 1.294 3.029 2.101 4.981 2.101 0.437 0 0.864-0.045 1.279-0.123 0.040 0.032 0.079 0.065 0.13 0.085l2.41 0.96 0.331 1.644-3.003-0.427zM20.020 18.572l-0.313-1.558 1.446-1.080 0.947 1.257-2.080 1.381zM23.774 15.741l-0.838 0.785-0.931-1.236 0.831-0.637c0.155-0.119 0.351-0.168 0.543-0.143 0.193 0.027 0.364 0.128 0.48 0.284 0.217 0.292 0.18 0.699-0.085 0.947z"></path>
<path fill="#212121" style="fill: var(--color1, #212121)" d="M13.602 18.544l-2.143-2.133c-0.207-0.207-0.545-0.207-0.753 0l-2.142 2.133c-0.1 0.101-0.157 0.236-0.157 0.378s0.056 0.278 0.157 0.378l2.142 2.133c0.104 0.103 0.241 0.155 0.377 0.155s0.273-0.052 0.376-0.155l2.143-2.133c0.1-0.1 0.157-0.236 0.157-0.378s-0.057-0.278-0.157-0.378zM11.083 20.303l-1.387-1.381 1.387-1.381 1.387 1.381-1.387 1.381z"></path>
<path fill="#212121" style="fill: var(--color1, #212121)" d="M17.164 5.071l-0.258 1.036c0.071 0.018 1.738 0.452 1.738 2.149h1.067c-0-2.017-1.666-2.965-2.547-3.185z"></path>
<path fill="#212121" style="fill: var(--color1, #212121)" d="M19.711 9.322h-1.067v1.067h1.067v-1.067z"></path>
</symbol>
<symbol id="icon-clock" viewBox="0 0 32 32">
<path fill="#212121" style="fill: var(--color1, #212121)" d="M31.297 15.301c-0.002-8.452-6.855-15.303-15.308-15.301s-15.303 6.855-15.301 15.308c0.001 6.658 4.307 12.551 10.649 14.576 0.061 0.019 0.124 0.029 0.187 0.029 0.121-0 0.239-0.032 0.342-0.094 0.135-0.080 0.236-0.207 0.283-0.356l3.865-12.25c1.057-0.005 1.909-0.866 1.903-1.923s-0.866-1.909-1.923-1.903c-0.284 0.001-0.565 0.067-0.82 0.191l-5.106-5.107c-0.253-0.245-0.657-0.238-0.902 0.016-0.239 0.247-0.239 0.639 0 0.886l5.103 5.109c-0.392 0.799-0.168 1.764 0.536 2.309l-3.683 11.673c-7.278-2.681-11.004-10.754-8.323-18.032s10.754-11.004 18.032-8.323 11.004 10.754 8.323 18.032c-1.31 3.556-4.001 6.431-7.462 7.973l-0.398-1.874c-0.073-0.344-0.411-0.565-0.756-0.492-0.109 0.023-0.209 0.074-0.292 0.148l-3.837 3.426c-0.263 0.234-0.287 0.637-0.052 0.9 0.076 0.085 0.174 0.149 0.283 0.184l4.899 1.563c0.335 0.108 0.694-0.077 0.802-0.412 0.034-0.106 0.040-0.219 0.017-0.328l-0.391-1.839c5.664-2.388 9.342-7.942 9.329-14.089zM15.992 14.664c0.352 0 0.638 0.286 0.638 0.638s-0.286 0.638-0.638 0.638c-0.352 0-0.638-0.285-0.638-0.638s0.285-0.638 0.638-0.638zM18.093 29.528l2.184-1.948 0.603 2.84-2.787-0.892z"></path>
<path fill="#2196f3" style="fill: var(--color2, #2196f3)" d="M15.354 3.185v1.275c0 0.352 0.285 0.638 0.638 0.638s0.638-0.285 0.638-0.638v-1.275c0-0.352-0.286-0.638-0.638-0.638s-0.638 0.286-0.638 0.638z"></path>
<path fill="#2196f3" style="fill: var(--color2, #2196f3)" d="M3.876 14.664c-0.352 0-0.638 0.286-0.638 0.638s0.285 0.638 0.638 0.638h1.275c0.352 0 0.638-0.285 0.638-0.638s-0.285-0.638-0.638-0.638h-1.275z"></path>
<path fill="#2196f3" style="fill: var(--color2, #2196f3)" d="M28.108 15.939c0.352 0 0.638-0.285 0.638-0.638s-0.285-0.638-0.638-0.638h-1.275c-0.352 0-0.638 0.286-0.638 0.638s0.286 0.638 0.638 0.638h1.275z"></path>
</symbol>
<symbol id="icon-diagram" viewBox="0 0 32 32">
<path fill="#2196f3" style="fill: var(--color2, #2196f3)" d="M14.926 14.965h1.066v4.798h-1.066v-4.797z"></path>
<path fill="#2196f3" style="fill: var(--color2, #2196f3)" d="M19.19 17.097h1.066v2.665h-1.066v-2.665z"></path>
<path fill="#2196f3" style="fill: var(--color2, #2196f3)" d="M10.661 18.696h1.066v1.066h-1.066v-1.066z"></path>
<path fill="#2196f3" style="fill: var(--color2, #2196f3)" d="M7.463 18.163h1.066v1.599h-1.066v-1.599z"></path>
<path fill="#212121" style="fill: var(--color1, #212121)" d="M1.599 28.291h25.587c0.883 0 1.599-0.716 1.599-1.599v-2.132c0-0.883-0.716-1.599-1.599-1.599h-0.533v-13.293l3.028-2.868c0.703 0.346 1.553 0.136 2.013-0.499s0.396-1.508-0.152-2.068-1.42-0.644-2.065-0.198c-0.644 0.446-0.873 1.292-0.542 2.002l-2.281 2.163v-1.23c0-0.883-0.716-1.599-1.599-1.599h-21.322c-0.883 0-1.599 0.716-1.599 1.599v15.992h-0.533c-0.883 0-1.599 0.716-1.599 1.599v2.132c0 0.883 0.716 1.599 1.599 1.599zM30.384 4.837c0.294 0 0.533 0.239 0.533 0.533s-0.239 0.533-0.533 0.533c-0.294 0-0.533-0.239-0.533-0.533s0.239-0.533 0.533-0.533zM3.198 6.969c0-0.294 0.239-0.533 0.533-0.533h21.322c0.294 0 0.533 0.239 0.533 0.533v2.239l-1.066 1.013v-2.186c0-0.294-0.239-0.533-0.533-0.533h-19.19c-0.294 0-0.533 0.239-0.533 0.533v13.326c0 0.294 0.239 0.533 0.533 0.533h19.19c0.294 0 0.533-0.239 0.533-0.533v-9.674l1.066-1.010v12.284h-22.388v-15.992zM7.996 13.899c-0.721-0.002-1.354 0.478-1.546 1.174s0.105 1.433 0.725 1.801c0.62 0.368 1.41 0.276 1.928-0.226l1.853 0.93c0.215 0.108 0.476 0.057 0.636-0.123l3.939-4.431 3.872 2.901c0.208 0.156 0.498 0.139 0.686-0.039l3.365-3.188v8.131h-18.124v-12.26h18.124v2.66l-3.771 3.572-3.904-2.927c-0.222-0.166-0.534-0.135-0.718 0.072l-3.993 4.493-1.493-0.746c0.011-0.064 0.018-0.129 0.020-0.193 0-0.883-0.716-1.599-1.599-1.599zM8.529 15.498c0 0.294-0.239 0.533-0.533 0.533s-0.533-0.239-0.533-0.533c0-0.294 0.239-0.533 0.533-0.533s0.533 0.239 0.533 0.533zM11.727 24.027h5.331v0.533c0 0.294-0.239 0.533-0.533 0.533h-4.264c-0.294 0-0.533-0.239-0.533-0.533v-0.533zM1.066 24.56c0-0.294 0.239-0.533 0.533-0.533h9.062v0.533c0 0.883 0.716 1.599 1.599 1.599h4.264c0.883 0 1.599-0.716 1.599-1.599v-0.533h9.062c0.294 0 0.533 0.239 0.533 0.533v2.132c0 0.294-0.239 0.533-0.533 0.533h-25.587c-0.294 0-0.533-0.239-0.533-0.533v-2.132z"></path>
</symbol>
<symbol id="icon-envelope" viewBox="0 0 43 32">
<path  d="M38.667 0h-34.667c-2.206 0-4 1.794-4 4v24c0 2.206 1.794 4 4 4h34.667c2.206 0 4-1.794 4-4v-24c0-2.206-1.794-4-4-4v0zM38.667 2.667c0.181 0 0.353 0.038 0.511 0.103l-17.844 15.466-17.844-15.466c0.158-0.066 0.33-0.103 0.511-0.103h34.667zM38.667 29.333h-34.667c-0.736 0-1.333-0.598-1.333-1.333v-22.413l17.793 15.421c0.251 0.217 0.563 0.326 0.874 0.326s0.622-0.108 0.874-0.326l17.793-15.421v22.413c0 0.736-0.598 1.333-1.333 1.333v0z"></path>
</symbol>
<symbol id="icon-facebook" viewBox="0 0 32 32">
<path  d="M21.329 5.313h2.921v-5.088c-0.504-0.069-2.237-0.225-4.256-0.225-4.212 0-7.097 2.649-7.097 7.519v4.481h-4.648v5.688h4.648v14.312h5.699v-14.311h4.46l0.708-5.688h-5.169v-3.919c0.001-1.644 0.444-2.769 2.735-2.769z"></path>
</symbol>
<symbol id="icon-instagram" viewBox="0 0 32 32">
<path  d="M31.969 9.408c-0.075-1.7-0.35-2.869-0.744-3.882-0.406-1.075-1.032-2.038-1.851-2.838-0.8-0.813-1.769-1.444-2.832-1.844-1.019-0.394-2.182-0.669-3.882-0.744-1.713-0.081-2.257-0.1-6.601-0.1s-4.888 0.019-6.595 0.094c-1.7 0.075-2.869 0.35-3.882 0.744-1.075 0.406-2.038 1.031-2.838 1.85-0.813 0.8-1.444 1.769-1.844 2.832-0.394 1.019-0.669 2.182-0.744 3.882-0.081 1.713-0.1 2.257-0.1 6.601s0.019 4.888 0.094 6.595c0.075 1.7 0.35 2.869 0.744 3.882 0.406 1.075 1.038 2.038 1.85 2.838 0.8 0.813 1.769 1.444 2.832 1.844 1.019 0.394 2.182 0.669 3.882 0.744 1.706 0.075 2.25 0.094 6.595 0.094s4.888-0.019 6.595-0.094c1.7-0.075 2.869-0.35 3.882-0.744 2.151-0.832 3.851-2.532 4.682-4.682 0.394-1.019 0.669-2.182 0.744-3.882 0.075-1.707 0.094-2.251 0.094-6.595s-0.006-4.888-0.081-6.595zM29.087 22.473c-0.069 1.563-0.331 2.407-0.55 2.969-0.538 1.394-1.644 2.5-3.038 3.038-0.563 0.219-1.413 0.481-2.969 0.55-1.688 0.075-2.194 0.094-6.464 0.094s-4.782-0.019-6.464-0.094c-1.563-0.069-2.407-0.331-2.969-0.55-0.694-0.256-1.325-0.663-1.838-1.194-0.531-0.519-0.938-1.144-1.194-1.838-0.219-0.563-0.481-1.413-0.55-2.969-0.075-1.688-0.094-2.194-0.094-6.464s0.019-4.782 0.094-6.464c0.069-1.563 0.331-2.407 0.55-2.969 0.256-0.694 0.663-1.325 1.2-1.838 0.519-0.531 1.144-0.938 1.838-1.194 0.563-0.219 1.413-0.481 2.969-0.55 1.688-0.075 2.194-0.094 6.464-0.094 4.276 0 4.782 0.019 6.464 0.094 1.563 0.069 2.407 0.331 2.969 0.55 0.694 0.256 1.325 0.662 1.838 1.194 0.531 0.519 0.938 1.144 1.194 1.838 0.219 0.563 0.481 1.413 0.55 2.969 0.075 1.688 0.094 2.194 0.094 6.464s-0.019 4.77-0.094 6.458z"></path>
<path  d="M16.059 7.783c-4.538 0-8.22 3.682-8.22 8.22s3.682 8.22 8.22 8.22c4.539 0 8.22-3.682 8.22-8.22s-3.682-8.22-8.22-8.22zM16.059 21.335c-2.944 0-5.332-2.388-5.332-5.332s2.388-5.332 5.332-5.332c2.944 0 5.332 2.388 5.332 5.332s-2.388 5.332-5.332 5.332z"></path>
<path  d="M26.524 7.458c0 1.060-0.859 1.919-1.919 1.919s-1.919-0.859-1.919-1.919c0-1.060 0.859-1.919 1.919-1.919s1.919 0.859 1.919 1.919z"></path>
</symbol>
<symbol id="icon-linkedin" viewBox="0 0 32 32">
<path  d="M31.992 32v-0.001h0.008v-11.736c0-5.741-1.236-10.164-7.948-10.164-3.227 0-5.392 1.771-6.276 3.449h-0.093v-2.913h-6.364v21.364h6.627v-10.579c0-2.785 0.528-5.479 3.977-5.479 3.399 0 3.449 3.179 3.449 5.657v10.401h6.62z"></path>
<path  d="M0.528 10.636h6.635v21.364h-6.635v-21.364z"></path>
<path  d="M3.843 0c-2.121 0-3.843 1.721-3.843 3.843s1.721 3.879 3.843 3.879c2.121 0 3.843-1.757 3.843-3.879-0.001-2.121-1.723-3.843-3.843-3.843v0z"></path>
</symbol>
<symbol id="icon-logo2" viewBox="0 0 51 32">
<path  d="M24.297 3.267h-0.066c-0.102-0.006-0.204-0.009-0.305-0.011v0h-0.221c-0.193 0-0.389 0.005-0.584 0.015-0.015-0.001-0.029-0.001-0.044 0-1.767 0.1-3.498 0.542-5.099 1.301l-0.21 0.101v10.735l0.491-0.166c0.43-0.148 0.889-0.281 1.364-0.404 1.283-0.329 2.601-0.505 3.925-0.521v1.41c-0.175 0.001-0.346 0.006-0.516 0.015h-0.041c-1.019 0.056-2.030 0.211-3.020 0.464-1.253 0.314-2.462 0.785-3.597 1.402v-13.768c1.18-0.688 2.45-1.205 3.774-1.535 1.162-0.3 2.357-0.454 3.557-0.459h0.207c0.248 0.006 0.489 0.017 0.716 0.035 0.598 0.042 1.191 0.136 1.772 0.282v1.388c-0.565-0.132-1.139-0.218-1.717-0.259-0.012-0.001-0.023-0.002-0.035-0.003-0.12-0.010-0.239-0.020-0.351-0.020zM26.741 4.686c0.308 0.023 0.627 0.035 0.949 0.035 1.261-0.005 2.517-0.166 3.74-0.48 1.252-0.315 2.46-0.786 3.596-1.403v13.523c-1.18 0.688-2.451 1.204-3.775 1.535-1.162 0.299-2.357 0.453-3.557 0.457-0.909 0.007-1.816-0.1-2.698-0.318v-13.61c0.209 0.048 0.423 0.092 0.641 0.129 0.358 0.060 0.736 0.105 1.104 0.132zM33.623 4.791l-0.491 0.165c-0.451 0.152-0.906 0.287-1.364 0.408-1.332 0.342-2.701 0.518-4.076 0.523-0.32 0-0.614-0.009-0.899-0.027l-0.391-0.026v11.043l0.336 0.030c0.312 0.027 0.633 0.041 0.957 0.041 1.083-0.005 2.161-0.144 3.21-0.416 0.864-0.217 1.704-0.518 2.508-0.901l0.21-0.101v-10.739z"></path>
<path  d="M17.327 22.311c-0.070-0.073-0.156-0.131-0.25-0.169s-0.195-0.056-0.296-0.052c-0.108-0.001-0.215 0.019-0.315 0.059-0.092 0.037-0.175 0.091-0.245 0.162s-0.123 0.154-0.158 0.247c-0.038 0.097-0.058 0.2-0.056 0.305v1.84c-0.004 0.13 0.020 0.259 0.072 0.377 0.043 0.094 0.106 0.178 0.184 0.247 0.074 0.062 0.16 0.107 0.253 0.131 0.089 0.025 0.182 0.038 0.275 0.038 0.102 0.001 0.204-0.021 0.297-0.064 0.092-0.040 0.175-0.098 0.245-0.17 0.068-0.071 0.123-0.155 0.161-0.247 0.039-0.093 0.059-0.193 0.059-0.293v-0.206h-0.481v0.164c0.001 0.056-0.008 0.112-0.028 0.164-0.016 0.039-0.039 0.074-0.070 0.104-0.030 0.024-0.064 0.042-0.101 0.053-0.032 0.011-0.066 0.017-0.101 0.017-0.043 0.005-0.086-0.002-0.126-0.019s-0.074-0.045-0.1-0.080c-0.045-0.074-0.068-0.16-0.064-0.247v-1.715c-0.003-0.095 0.017-0.189 0.059-0.275 0.025-0.039 0.060-0.070 0.102-0.089s0.088-0.027 0.134-0.022c0.041-0.001 0.083 0.007 0.12 0.025s0.070 0.045 0.095 0.078c0.054 0.071 0.082 0.158 0.080 0.247v0.159h0.476v-0.187c0.001-0.11-0.019-0.219-0.059-0.322-0.035-0.096-0.090-0.184-0.161-0.259z"></path>
<path  d="M20.184 22.29c-0.153-0.129-0.347-0.201-0.547-0.202-0.098 0-0.195 0.018-0.287 0.052-0.093 0.033-0.18 0.084-0.254 0.15-0.080 0.072-0.143 0.159-0.186 0.258-0.048 0.112-0.072 0.234-0.070 0.356v1.764c-0.003 0.124 0.021 0.247 0.070 0.361 0.044 0.095 0.107 0.179 0.186 0.247 0.073 0.068 0.16 0.121 0.254 0.155 0.092 0.034 0.189 0.051 0.287 0.052s0.195-0.018 0.287-0.052c0.096-0.035 0.184-0.087 0.26-0.155s0.138-0.153 0.182-0.247c0.049-0.114 0.073-0.237 0.070-0.361v-1.764c0.002-0.122-0.021-0.244-0.070-0.356-0.043-0.097-0.105-0.185-0.182-0.258zM19.959 24.668c0.004 0.047-0.002 0.094-0.019 0.139s-0.043 0.084-0.077 0.117c-0.064 0.053-0.144 0.082-0.226 0.082s-0.163-0.029-0.226-0.082c-0.034-0.033-0.060-0.073-0.077-0.117s-0.023-0.091-0.019-0.139v-1.764c-0.004-0.047 0.002-0.094 0.019-0.139s0.043-0.084 0.077-0.117c0.064-0.053 0.144-0.082 0.226-0.082s0.163 0.029 0.226 0.082c0.034 0.033 0.060 0.073 0.077 0.117s0.023 0.091 0.019 0.139v1.764z"></path>
<path  d="M23.936 25.456v-3.34h-0.462l-0.607 1.768h-0.009l-0.612-1.768h-0.457v3.34h0.477v-2.032h0.009l0.467 1.436h0.238l0.471-1.436h0.009v2.032h0.477z"></path>
<path  d="M26.646 22.351c-0.073-0.082-0.166-0.145-0.27-0.183-0.112-0.036-0.229-0.054-0.346-0.052h-0.709v3.34h0.476v-1.304h0.245c0.148 0.007 0.296-0.025 0.429-0.091 0.108-0.060 0.198-0.148 0.261-0.255 0.055-0.089 0.092-0.188 0.109-0.291 0.019-0.126 0.027-0.253 0.026-0.38 0.005-0.16-0.011-0.321-0.047-0.477-0.032-0.116-0.092-0.221-0.175-0.307zM26.401 23.369c-0.002 0.061-0.017 0.12-0.044 0.174-0.027 0.051-0.070 0.092-0.123 0.117-0.070 0.032-0.147 0.046-0.224 0.042h-0.217v-1.136h0.245c0.074-0.004 0.148 0.011 0.215 0.042 0.049 0.028 0.088 0.071 0.112 0.123 0.026 0.059 0.040 0.122 0.042 0.186 0 0.070 0 0.144 0 0.222s0.005 0.158 0 0.229h-0.005z"></path>
<path  d="M28.901 22.116h-0.39l-0.736 3.34h0.476l0.14-0.718h0.649l0.14 0.718h0.476l-0.754-3.34zM28.462 24.284l0.234-1.211h0.009l0.233 1.211h-0.476z"></path>
<path  d="M31.976 24.128h-0.009l-0.719-2.012h-0.457v3.34h0.476v-2.008h0.010l0.727 2.008h0.448v-3.34h-0.476v2.012z"></path>
<path  d="M34.884 22.116l-0.383 1.328h-0.010l-0.383-1.328h-0.504l0.654 1.928v1.412h0.476v-1.412l0.654-1.928h-0.504z"></path>
<path  d="M16 26.399h0.229v0.644h0.156v-0.644h0.228v-0.132h-0.613v0.132z"></path>
<path  d="M17.928 26.268l-0.3 0.775h0.166l0.064-0.176h0.309l0.066 0.176h0.169l-0.308-0.775h-0.166zM17.904 26.736l0.105-0.287 0.105 0.287h-0.211z"></path>
<path  d="M19.834 26.757h0.179v0.1c-0.052 0.042-0.117 0.065-0.184 0.065-0.031 0.002-0.063-0.004-0.091-0.017s-0.054-0.032-0.073-0.057c-0.041-0.059-0.061-0.13-0.058-0.202 0-0.173 0.075-0.259 0.223-0.259 0.039-0.004 0.078 0.006 0.11 0.029s0.055 0.056 0.065 0.094l0.153-0.030c-0.033-0.152-0.142-0.228-0.329-0.228-0.1-0.003-0.197 0.033-0.271 0.1-0.039 0.039-0.069 0.085-0.089 0.137s-0.027 0.107-0.023 0.162c-0.005 0.106 0.031 0.21 0.099 0.291 0.038 0.039 0.084 0.070 0.135 0.089s0.105 0.028 0.16 0.024c0.121 0.003 0.239-0.041 0.329-0.123v-0.306h-0.336v0.131z"></path>
<path  d="M21.781 26.268h-0.157v0.775h0.543v-0.132h-0.386v-0.644z"></path>
<path  d="M23.427 26.268h-0.157v0.775h0.157v-0.775z"></path>
<path  d="M25.036 26.785l-0.318-0.518h-0.152v0.775h0.146v-0.507l0.312 0.507h0.156v-0.775h-0.143v0.518z"></path>
<path  d="M26.491 26.702h0.386v-0.132h-0.386v-0.17h0.416v-0.132h-0.573v0.775h0.589v-0.132h-0.432v-0.21z"></path>
<path  d="M30.018 26.573h-0.305v-0.306h-0.156v0.775h0.156v-0.339h0.305v0.339h0.156v-0.775h-0.156v0.306z"></path>
<path  d="M31.481 26.702h0.388v-0.132h-0.388v-0.17h0.417v-0.132h-0.573v0.775h0.587v-0.132h-0.432v-0.21z"></path>
<path  d="M33.466 26.702c0.135-0.021 0.204-0.092 0.204-0.216 0.004-0.033-0.001-0.066-0.014-0.097s-0.035-0.057-0.062-0.076c-0.070-0.035-0.149-0.051-0.227-0.046h-0.329v0.776h0.156v-0.324h0.031c0.033-0.002 0.066 0.004 0.097 0.017 0.023 0.014 0.042 0.034 0.055 0.057l0.169 0.247h0.186l-0.094-0.152c-0.042-0.075-0.101-0.139-0.172-0.186zM33.309 26.594h-0.115v-0.195h0.123c0.053-0.004 0.107 0.002 0.158 0.019 0.011 0.010 0.020 0.022 0.026 0.036s0.009 0.029 0.008 0.044c-0.001 0.015-0.005 0.030-0.012 0.043s-0.017 0.025-0.029 0.034c-0.051 0.016-0.105 0.022-0.158 0.019z"></path>
<path  d="M34.962 26.702h0.386v-0.132h-0.386v-0.17h0.417v-0.132h-0.574v0.775h0.589v-0.132h-0.432v-0.21z"></path>
</symbol>
<symbol id="icon-logo3" viewBox="0 0 51 32">
<path  d="M17.651 24.197c0.008 0 0.015 0.002 0.022 0.004s0.013 0.007 0.019 0.012l0.106 0.101c-0.082 0.082-0.184 0.147-0.297 0.192-0.133 0.049-0.277 0.072-0.422 0.069-0.136 0.002-0.271-0.019-0.397-0.064-0.113-0.041-0.215-0.103-0.299-0.182-0.085-0.081-0.151-0.177-0.193-0.28-0.046-0.116-0.069-0.237-0.067-0.36-0.002-0.123 0.023-0.245 0.073-0.361 0.046-0.104 0.116-0.2 0.205-0.28 0.090-0.079 0.198-0.141 0.317-0.183 0.13-0.044 0.269-0.066 0.409-0.064 0.13-0.003 0.259 0.017 0.379 0.059 0.105 0.039 0.201 0.094 0.284 0.162l-0.089 0.108c-0.006 0.008-0.014 0.014-0.022 0.020-0.010 0.006-0.023 0.009-0.036 0.008-0.014-0.001-0.027-0.005-0.038-0.012l-0.048-0.029-0.066-0.037c-0.029-0.014-0.058-0.026-0.089-0.036-0.039-0.012-0.079-0.022-0.12-0.029-0.052-0.008-0.105-0.012-0.157-0.012-0.101-0.001-0.2 0.015-0.293 0.048-0.087 0.030-0.165 0.077-0.23 0.136-0.066 0.063-0.117 0.136-0.149 0.216-0.037 0.091-0.056 0.188-0.054 0.285-0.002 0.099 0.017 0.197 0.054 0.29 0.032 0.079 0.082 0.152 0.147 0.215 0.061 0.058 0.136 0.104 0.219 0.133 0.086 0.031 0.179 0.047 0.272 0.046 0.054 0.001 0.108-0.002 0.161-0.009 0.087-0.009 0.171-0.036 0.245-0.077 0.037-0.021 0.072-0.045 0.104-0.071 0.014-0.011 0.031-0.018 0.050-0.018z"></path>
<path  d="M20.705 23.689c0.002 0.122-0.023 0.243-0.071 0.357-0.043 0.104-0.111 0.198-0.199 0.277s-0.195 0.141-0.312 0.182c-0.259 0.086-0.545 0.086-0.804 0-0.117-0.041-0.223-0.104-0.311-0.183-0.088-0.081-0.157-0.176-0.201-0.28-0.095-0.231-0.095-0.484 0-0.716 0.045-0.104 0.113-0.2 0.201-0.281 0.089-0.076 0.194-0.136 0.311-0.176 0.258-0.087 0.545-0.087 0.804 0 0.117 0.041 0.224 0.104 0.312 0.183 0.087 0.080 0.155 0.174 0.2 0.277 0.049 0.115 0.073 0.237 0.071 0.36zM20.428 23.689c0.002-0.098-0.015-0.195-0.050-0.287-0.030-0.079-0.078-0.152-0.141-0.215-0.062-0.059-0.138-0.105-0.223-0.136-0.188-0.063-0.396-0.063-0.584 0-0.085 0.030-0.161 0.076-0.223 0.136-0.065 0.062-0.113 0.135-0.143 0.215-0.067 0.187-0.067 0.387 0 0.574 0.030 0.079 0.078 0.153 0.143 0.215 0.062 0.059 0.138 0.105 0.223 0.134 0.188 0.061 0.396 0.061 0.584 0 0.085-0.030 0.161-0.076 0.223-0.134 0.063-0.063 0.111-0.136 0.141-0.215 0.035-0.093 0.052-0.19 0.050-0.287z"></path>
<path  d="M22.788 23.99l0.028 0.064c0.011-0.023 0.020-0.044 0.030-0.064s0.022-0.043 0.034-0.063l0.675-1.067c0.013-0.018 0.025-0.030 0.038-0.033 0.018-0.005 0.037-0.007 0.055-0.006h0.2v1.735h-0.237v-1.276c0-0.016 0-0.034 0-0.054-0.001-0.020-0.001-0.040 0-0.060l-0.679 1.082c-0.009 0.016-0.022 0.030-0.040 0.039s-0.037 0.015-0.058 0.015h-0.038c-0.021 0-0.041-0.005-0.058-0.014s-0.031-0.023-0.040-0.040l-0.699-1.089c0 0.021 0 0.041 0 0.062s0 0.039 0 0.055v1.276h-0.229v-1.732h0.2c0.019-0.001 0.038 0.001 0.055 0.006 0.016 0.007 0.029 0.019 0.037 0.033l0.69 1.068c0.014 0.020 0.025 0.041 0.034 0.062z"></path>
<path  d="M25.331 23.904v0.65h-0.264v-1.733h0.59c0.111-0.002 0.222 0.011 0.329 0.038 0.086 0.021 0.165 0.058 0.233 0.108 0.059 0.047 0.104 0.105 0.132 0.17 0.031 0.071 0.046 0.146 0.045 0.222 0.001 0.076-0.015 0.151-0.049 0.222-0.032 0.066-0.081 0.126-0.143 0.173-0.068 0.052-0.148 0.091-0.234 0.115-0.103 0.029-0.211 0.042-0.319 0.040l-0.32-0.005zM25.331 23.718h0.32c0.069 0.001 0.139-0.008 0.205-0.026 0.055-0.016 0.105-0.041 0.148-0.075 0.040-0.032 0.070-0.071 0.090-0.115 0.022-0.046 0.032-0.096 0.032-0.146 0.003-0.048-0.006-0.096-0.027-0.141s-0.052-0.085-0.092-0.118c-0.101-0.069-0.228-0.102-0.356-0.093h-0.32v0.714z"></path>
<path  d="M28.884 24.556h-0.209c-0.021 0.001-0.041-0.005-0.058-0.016-0.015-0.011-0.027-0.025-0.034-0.040l-0.18-0.419h-0.903l-0.186 0.419c-0.007 0.015-0.018 0.029-0.033 0.039-0.017 0.012-0.038 0.018-0.059 0.017h-0.209l0.793-1.736h0.275l0.804 1.736zM27.575 23.912h0.746l-0.315-0.706c-0.024-0.053-0.044-0.108-0.059-0.163l-0.030 0.091c-0.009 0.028-0.020 0.053-0.029 0.073l-0.312 0.705z"></path>
<path  d="M30.026 22.828c0.016 0.008 0.029 0.018 0.040 0.031l1.157 1.308c0-0.021 0-0.041 0-0.061s0-0.039 0-0.057v-1.229h0.237v1.736h-0.132c-0.019 0.001-0.037-0.003-0.054-0.010-0.016-0.008-0.031-0.019-0.042-0.032l-1.155-1.307c0.001 0.020 0.001 0.040 0 0.060 0 0.020 0 0.037 0 0.053v1.237h-0.237v-1.736h0.14c0.016-0 0.033 0.002 0.048 0.008z"></path>
<path  d="M33.407 23.866v0.689h-0.264v-0.689l-0.731-1.045h0.237c0.020-0.001 0.041 0.004 0.057 0.015 0.014 0.011 0.026 0.024 0.036 0.039l0.457 0.674c0.019 0.029 0.034 0.055 0.048 0.080s0.024 0.049 0.033 0.073l0.034-0.075c0.013-0.027 0.028-0.054 0.045-0.079l0.451-0.679c0.009-0.014 0.021-0.026 0.034-0.037 0.016-0.012 0.036-0.018 0.057-0.017h0.239l-0.732 1.050z"></path>
<path  d="M22.658 19.908c0.115 0.013 0.231 0.023 0.349 0.032 1.784-0.693 3.293-1.828 4.338-3.262s1.581-3.104 1.54-4.802l-1.966-1.708c0.4 1.807 0.213 3.675-0.54 5.395s-2.041 3.224-3.722 4.344z"></path>
<path  d="M21.956 19.829l0.053 0.009c1.796-1.116 3.165-2.674 3.93-4.474s0.892-3.757 0.363-5.619l-2.8-2.433c1.132 1.999 1.588 4.237 1.314 6.453s-1.266 4.318-2.861 6.064z"></path>
<path  d="M31.451 13.882c-0.476 1.865-1.631 3.547-3.294 4.796-0.486 0.367-1.010 0.694-1.565 0.976 1.354-0.346 2.599-0.957 3.639-1.787s1.846-1.856 2.356-3l-1.136-0.985z"></path>
<path  d="M31.006 13.607l-1.617-1.405c-0.031 1.601-0.555 3.167-1.518 4.533s-2.329 2.483-3.957 3.235h0.008c0.363-0 0.725-0.019 1.085-0.056 1.521-0.539 2.865-1.398 3.911-2.498s1.763-2.409 2.086-3.809z"></path>
<path  d="M22.19 6.286l-1.929-1.678c-1.724 0.579-3.207 1.597-4.255 2.92s-1.611 2.89-1.616 4.496v0c0.006 1.775 0.694 3.497 1.954 4.894s3.020 2.389 5.001 2.819c1.769-1.873 2.805-4.186 2.956-6.605s-0.588-4.817-2.112-6.846z"></path>
<path  d="M35.462 13.349c-0.007-2.105-0.973-4.123-2.686-5.612s-4.036-2.328-6.459-2.334c-1.12-0.001-2.23 0.179-3.274 0.529l11.809 10.26c0.404-0.907 0.611-1.871 0.611-2.844z"></path>
</symbol>
<symbol id="icon-logo4" viewBox="0 0 51 32">
<path  d="M11.707 10.622h-0.001c-1.163 0-2.105 0.838-2.105 1.871v0.001c0 1.033 0.943 1.871 2.105 1.871h0.001c1.163 0 2.105-0.838 2.105-1.871v-0.001c0-1.033-0.943-1.871-2.105-1.871z"></path>
<path  d="M27.246 10.024c-0.003-1.435-0.646-2.811-1.788-3.826s-2.689-1.587-4.304-1.59v0c-1.615 0.003-3.164 0.574-4.306 1.589s-1.786 2.391-1.789 3.826v7.914c0 0 12.186-1.206 12.187-7.913v-0.001z"></path>
<path  d="M5.333 20.535c0.003 0.999 0.45 1.956 1.245 2.662s1.871 1.104 2.995 1.107c1.123-0.003 2.2-0.401 2.994-1.107s1.242-1.663 1.245-2.661v-5.507c0 0-8.479 0.84-8.479 5.506zM9.573 21.522c-0.22 0-0.434-0.058-0.617-0.166s-0.325-0.262-0.409-0.443c-0.084-0.18-0.106-0.379-0.063-0.57s0.149-0.367 0.304-0.505c0.155-0.138 0.353-0.232 0.569-0.27s0.439-0.019 0.641 0.056c0.203 0.075 0.376 0.201 0.498 0.363s0.187 0.353 0.187 0.548c0.001 0.13-0.028 0.259-0.083 0.379s-0.137 0.229-0.24 0.321c-0.103 0.092-0.226 0.165-0.361 0.215s-0.28 0.075-0.426 0.075v-0.004z"></path>
<path  d="M18.142 20.978h-0.818v0.845h-0.426v-2.068h1.347v0.345h-0.92v0.534h0.818v0.344zM20.19 20.836c0 0.204-0.036 0.382-0.108 0.535s-0.175 0.272-0.31 0.355c-0.133 0.083-0.287 0.125-0.46 0.125-0.171 0-0.324-0.041-0.459-0.124s-0.239-0.2-0.313-0.352c-0.074-0.153-0.111-0.33-0.112-0.528v-0.102c0-0.204 0.036-0.383 0.109-0.537 0.074-0.155 0.178-0.274 0.311-0.357s0.288-0.125 0.46-0.125c0.172 0 0.325 0.042 0.459 0.125s0.238 0.201 0.311 0.357c0.074 0.154 0.111 0.333 0.111 0.535v0.092zM19.758 20.743c0-0.217-0.039-0.382-0.116-0.494s-0.188-0.169-0.332-0.169c-0.143 0-0.253 0.056-0.331 0.168-0.078 0.111-0.117 0.274-0.118 0.489v0.101c0 0.211 0.039 0.375 0.116 0.491s0.189 0.175 0.335 0.175c0.143 0 0.253-0.056 0.33-0.168s0.116-0.276 0.116-0.491v-0.101zM21.572 21.281c0-0.081-0.028-0.142-0.085-0.185s-0.159-0.089-0.307-0.136c-0.148-0.048-0.265-0.096-0.351-0.142-0.235-0.127-0.352-0.298-0.352-0.513 0-0.112 0.031-0.211 0.094-0.298 0.063-0.088 0.154-0.157 0.271-0.206s0.251-0.074 0.398-0.074c0.148 0 0.279 0.027 0.395 0.081s0.205 0.128 0.268 0.226c0.064 0.098 0.097 0.208 0.097 0.332h-0.426c0-0.095-0.030-0.168-0.090-0.22s-0.143-0.080-0.251-0.080c-0.104 0-0.185 0.022-0.243 0.067s-0.087 0.101-0.087 0.173c0 0.067 0.034 0.124 0.101 0.169s0.168 0.088 0.3 0.128c0.242 0.073 0.419 0.163 0.53 0.271s0.166 0.242 0.166 0.403c0 0.179-0.068 0.32-0.203 0.422s-0.318 0.152-0.547 0.152c-0.159 0-0.304-0.029-0.435-0.087s-0.231-0.139-0.3-0.24c-0.068-0.101-0.102-0.219-0.102-0.352h0.428c0 0.228 0.136 0.342 0.409 0.342 0.101 0 0.18-0.020 0.237-0.061s0.085-0.099 0.085-0.173zM23.846 20.101h-0.634v1.723h-0.426v-1.723h-0.625v-0.345h1.685v0.345zM25.335 20.927h-0.818v0.554h0.96v0.342h-1.386v-2.068h1.384v0.345h-0.957v0.493h0.818v0.334zM26.493 21.067h-0.34v0.757h-0.426v-2.068h0.768c0.244 0 0.433 0.054 0.565 0.163s0.199 0.263 0.199 0.462c0 0.141-0.031 0.259-0.092 0.354s-0.153 0.169-0.277 0.224l0.447 0.845v0.020h-0.457l-0.388-0.757zM26.153 20.721h0.344c0.107 0 0.19-0.027 0.249-0.081s0.088-0.13 0.088-0.226c0-0.098-0.028-0.174-0.084-0.23s-0.14-0.084-0.254-0.084h-0.342v0.621zM28.736 21.095v0.729h-0.426v-2.068h0.807c0.155 0 0.292 0.028 0.409 0.085s0.209 0.138 0.273 0.243c0.063 0.104 0.095 0.223 0.095 0.357 0 0.203-0.070 0.363-0.209 0.48s-0.33 0.175-0.575 0.175h-0.374zM28.736 20.75h0.381c0.113 0 0.198-0.027 0.257-0.080s0.090-0.129 0.090-0.227c0-0.101-0.030-0.183-0.090-0.246s-0.142-0.095-0.247-0.097h-0.391v0.649zM31.432 20.927h-0.818v0.554h0.96v0.342h-1.386v-2.068h1.384v0.345h-0.957v0.493h0.818v0.334zM33.409 20.101h-0.633v1.723h-0.426v-1.723h-0.625v-0.345h1.685v0.345zM34.898 20.927h-0.818v0.554h0.96v0.342h-1.386v-2.068h1.383v0.345h-0.957v0.493h0.818v0.334zM36.055 21.067h-0.34v0.757h-0.426v-2.068h0.768c0.244 0 0.433 0.054 0.565 0.163s0.199 0.263 0.199 0.462c0 0.141-0.031 0.259-0.092 0.354s-0.153 0.169-0.277 0.224l0.447 0.845v0.020h-0.457l-0.388-0.757zM35.716 20.721h0.344c0.107 0 0.19-0.027 0.249-0.081s0.088-0.13 0.088-0.226c0-0.098-0.028-0.174-0.084-0.23s-0.14-0.084-0.254-0.084h-0.342v0.621zM38.22 21.281c0-0.081-0.028-0.142-0.085-0.185s-0.159-0.089-0.307-0.136c-0.148-0.048-0.265-0.096-0.351-0.142-0.235-0.127-0.352-0.298-0.352-0.513 0-0.112 0.031-0.211 0.094-0.298 0.063-0.088 0.154-0.157 0.271-0.206s0.251-0.074 0.398-0.074c0.148 0 0.279 0.027 0.395 0.081s0.205 0.128 0.268 0.226c0.064 0.098 0.097 0.208 0.097 0.332h-0.426c0-0.095-0.030-0.168-0.089-0.22s-0.143-0.080-0.251-0.080c-0.104 0-0.185 0.022-0.243 0.067s-0.087 0.101-0.087 0.173c0 0.067 0.034 0.124 0.101 0.169s0.168 0.088 0.3 0.128c0.242 0.073 0.419 0.163 0.53 0.271s0.166 0.242 0.166 0.403c0 0.179-0.068 0.32-0.203 0.422s-0.318 0.152-0.547 0.152c-0.159 0-0.304-0.029-0.435-0.087s-0.231-0.139-0.3-0.24c-0.068-0.101-0.102-0.219-0.102-0.352h0.428c0 0.228 0.136 0.342 0.409 0.342 0.101 0 0.18-0.020 0.237-0.061s0.085-0.099 0.085-0.173z"></path>
</symbol>
<symbol id="icon-email-black" viewBox="0 0 32 32">
<path d="M26.667 5.333h-21.333c-1.467 0-2.652 1.2-2.652 2.667l-0.014 16c0 1.467 1.2 2.667 2.667 2.667h21.333c1.467 0 2.667-1.2 2.667-2.667v-16c0-1.467-1.2-2.667-2.667-2.667zM26.133 11.001l-9.426 5.892c-0.201 0.126-0.446 0.2-0.708 0.2s-0.506-0.075-0.713-0.204l0.006 0.003-9.426-5.892c-0.336-0.201-0.557-0.562-0.557-0.975 0-0.625 0.507-1.132 1.132-1.132 0.233 0 0.449 0.070 0.629 0.19l-0.004-0.003 8.933 5.586 8.933-5.588c0.176-0.118 0.392-0.188 0.624-0.188 0.625 0 1.132 0.507 1.132 1.132 0 0.413-0.221 0.775-0.552 0.972l-0.005 0.003z"></path>
</symbol>
<symbol id="icon-icon-check" viewBox="0 0 32 32">
<path fill="#2196f3" style="fill: var(--color1, #2196f3)" d="M4 1h24c2.209 0 4 1.791 4 4v22c0 2.209-1.791 4-4 4h-24c-2.209 0-4-1.791-4-4v-22c0-2.209 1.791-4 4-4z"></path>
<path fill="#fff" style="fill: var(--color2, #fff); stroke: var(--color2, #fff)" stroke="#fff" stroke-linejoin="miter" stroke-linecap="butt" stroke-miterlimit="4" stroke-width="0.4" d="M7.914 16.504l-0.138-0.132-0.138 0.13-1.928 1.828 0.152 0.146 7.13 6.8 0.138-0.132 15.16-14.462-0.152-0.144-1.902-1.814-0.138 0.132-13.106 12.492-5.078-4.844z"></path>
</symbol>
<symbol id="icon-icon-send" viewBox="0 0 32 32">
<path fill="#fff" style="fill: var(--color2, #fff)" d="M32 0l-32 18 10.227 3.787 15.773-14.787-11.997 16.187 0.009 0.003-0.012-0.003v8.813l5.735-6.691 7.267 2.691 4.999-28z"></path>
</symbol>
<symbol id="icon-person-black" viewBox="0 0 32 32">
<path d="M16 16c2.946 0 5.333-2.388 5.333-5.333s-2.388-5.333-5.333-5.333v0c-2.946 0-5.333 2.388-5.333 5.333s2.388 5.333 5.333 5.333v0zM16 18.667c-3.561 0-10.667 1.787-10.667 5.333v1.333c0 0.732 0.599 1.333 1.333 1.333h18.667c0.732 0 1.333-0.601 1.333-1.333v-1.333c0-3.547-7.108-5.333-10.667-5.333z"></path>
</symbol>
<symbol id="icon-phone-black" viewBox="0 0 32 32">
<path d="M24.882 19.774l-3.268-0.373c-0.090-0.011-0.194-0.018-0.3-0.018-0.707 0-1.347 0.287-1.81 0.75l-2.368 2.368c-3.669-1.894-6.585-4.81-8.427-8.372l-0.051-0.108 2.382-2.377c0.463-0.463 0.75-1.103 0.75-1.81 0-0.106-0.006-0.21-0.019-0.312l0.001 0.012-0.373-3.243c-0.155-1.287-1.24-2.276-2.557-2.276-0.001 0-0.002 0-0.003 0h-2.226c-1.454 0-2.663 1.209-2.574 2.661 0.683 10.987 9.47 19.762 20.444 20.444 1.452 0.089 2.663-1.12 2.663-2.574v-2.226c0-0.004 0-0.008 0-0.012 0-1.308-0.985-2.386-2.253-2.532l-0.012-0.001z"></path>
</symbol>
<symbol id="icon-icon-box" viewBox="0 0 32 32">
<path d="M28.444 4.334v23.332h-24.888v-23.332h24.888zM28.444 1h-24.888c-1.956 0-3.556 1.5-3.556 3.334v23.332c0 1.834 1.6 3.334 3.556 3.334h24.888c1.956 0 3.556-1.5 3.556-3.334v-23.332c0-1.834-1.6-3.334-3.556-3.334z"></path>
</symbol>
<symbol id="icon-logo5" viewBox="0 0 51 32">
<path  d="M12.973 22.080c0.118 0.134 0.181 0.302 0.178 0.474 0.006 0.112-0.016 0.224-0.063 0.328s-0.12 0.196-0.212 0.27c-0.23 0.159-0.514 0.236-0.801 0.218h-1.408v-3.002h1.379c0.272-0.017 0.542 0.054 0.764 0.199 0.089 0.068 0.16 0.155 0.206 0.252s0.068 0.203 0.061 0.31c0.008 0.166-0.049 0.328-0.16 0.459-0.107 0.119-0.255 0.202-0.42 0.235 0.187 0.031 0.355 0.122 0.476 0.257zM11.322 21.627h0.589c0.134 0.009 0.267-0.026 0.375-0.1 0.044-0.037 0.079-0.082 0.101-0.133s0.031-0.106 0.026-0.16c0.004-0.054-0.005-0.109-0.026-0.159s-0.055-0.096-0.098-0.134c-0.111-0.075-0.248-0.111-0.386-0.101h-0.58v0.788zM12.344 22.778c0.047-0.038 0.084-0.085 0.109-0.138s0.035-0.11 0.031-0.167c0.004-0.058-0.007-0.116-0.032-0.169s-0.063-0.101-0.11-0.139c-0.115-0.078-0.257-0.117-0.4-0.108h-0.618v0.826h0.626c0.141 0.007 0.28-0.029 0.396-0.104z"></path>
<path  d="M15.792 23.37l-0.767-1.173h-0.288v1.173h-0.66v-3.002h1.249c0.315-0.020 0.626 0.071 0.87 0.255 0.175 0.163 0.28 0.378 0.297 0.605s-0.055 0.454-0.204 0.637c-0.154 0.162-0.365 0.269-0.596 0.305l0.817 1.2h-0.718zM14.736 21.788h0.54c0.375 0 0.562-0.152 0.562-0.455 0.004-0.062-0.006-0.124-0.030-0.182s-0.060-0.111-0.108-0.155c-0.118-0.090-0.271-0.134-0.424-0.122h-0.546l0.006 0.914z"></path>
<path  d="M19.399 22.766h-1.315l-0.232 0.604h-0.692l1.208-2.968h0.748l1.203 2.968h-0.692l-0.227-0.604zM19.223 22.311l-0.48-1.267-0.48 1.267h0.961z"></path>
<path  d="M23.914 23.37h-0.655l-1.469-2.041v2.041h-0.653v-3.002h0.653l1.469 2.053v-2.053h0.655v3.002z"></path>
<path  d="M27.652 22.652c-0.135 0.227-0.342 0.411-0.593 0.529-0.285 0.132-0.602 0.197-0.921 0.189h-1.166v-3.002h1.166c0.319-0.008 0.635 0.056 0.921 0.185 0.251 0.116 0.457 0.298 0.593 0.524 0.135 0.244 0.205 0.514 0.205 0.788s-0.070 0.543-0.205 0.788zM26.903 22.58c0.187-0.199 0.29-0.454 0.29-0.716s-0.103-0.517-0.29-0.716c-0.226-0.181-0.521-0.272-0.82-0.255h-0.455v1.943h0.455c0.299 0.017 0.594-0.075 0.82-0.255z"></path>
<path  d="M19.809 3.671c0 0 8.455 2.923 8.276 7.152v7.154c0 0-8.449-2.924-8.273-7.154l-0.003-7.152z"></path>
<path  d="M35.617 16.302c1.597-1.006 3.444-1.629 5.372-1.813v-2.239c-2.222 0.784-4.106 2.205-5.372 4.052z"></path>
<path  d="M34.658 16.976c1.307-2.41 3.573-4.269 6.331-5.196v-6.453c0 0-12.041 4.163-11.787 10.186v10.185c0 0 0.537-0.186 1.381-0.535 0-0.326 0-0.654 0.038-0.984 0.249-2.796 1.701-5.387 4.036-7.203z"></path>
<path  d="M33.513 20.76c0.063-0.706 0.204-1.405 0.421-2.085-1.454 1.569-2.335 3.515-2.518 5.565-0.018 0.194-0.027 0.387-0.032 0.587 0.684-0.301 1.48-0.676 2.316-1.117-0.213-0.97-0.276-1.963-0.187-2.949z"></path>
<path  d="M33.992 20.797c-0.080 0.892-0.030 1.79 0.149 2.671 3.29-1.802 6.986-4.587 6.844-7.953v-0.293c-2.35 0.241-4.549 1.182-6.259 2.678-0.4 0.927-0.648 1.904-0.734 2.898z"></path>
</symbol>
<symbol id="icon-logo6" viewBox="0 0 51 32">
<path  d="M25.903 13.679c-0.215-0.286-0.318-0.624-0.293-0.964v-1.398c0-0.429 0.097-0.754 0.292-0.977s0.528-0.334 1.001-0.333c0.445 0 0.76 0.095 0.947 0.284 0.204 0.242 0.303 0.538 0.28 0.836v0.329h-0.796v-0.333c0.003-0.109-0.005-0.218-0.023-0.326-0.011-0.074-0.052-0.142-0.114-0.193-0.082-0.056-0.185-0.082-0.288-0.075-0.109-0.007-0.217 0.021-0.303 0.080-0.069 0.057-0.116 0.132-0.132 0.213-0.023 0.114-0.033 0.23-0.031 0.346v1.697c-0.013 0.164 0.023 0.327 0.102 0.476 0.040 0.050 0.095 0.090 0.159 0.115s0.135 0.034 0.205 0.027c0.102 0.007 0.203-0.020 0.282-0.077 0.065-0.056 0.107-0.128 0.119-0.206 0.019-0.113 0.027-0.226 0.025-0.34v-0.344h0.796v0.314c0.022 0.311-0.074 0.62-0.275 0.879-0.183 0.208-0.494 0.311-0.952 0.311s-0.804-0.111-1-0.341z"></path>
<path  d="M29.215 13.693c-0.201-0.218-0.301-0.535-0.301-0.954v-1.47c0-0.415 0.1-0.729 0.301-0.943s0.537-0.319 1.008-0.319c0.468 0 0.802 0.106 1.003 0.319 0.201 0.213 0.303 0.528 0.303 0.943v1.47c0 0.415-0.102 0.734-0.306 0.953s-0.537 0.329-1 0.329c-0.463 0-0.805-0.111-1.008-0.327zM30.594 13.34c0.072-0.136 0.105-0.286 0.096-0.435v-1.8c0.009-0.147-0.023-0.293-0.094-0.427-0.040-0.051-0.097-0.092-0.162-0.117s-0.139-0.034-0.21-0.025c-0.071-0.009-0.144 0-0.21 0.025s-0.123 0.066-0.164 0.117c-0.072 0.133-0.105 0.28-0.096 0.427v1.809c-0.010 0.15 0.023 0.299 0.096 0.435 0.046 0.046 0.104 0.083 0.168 0.108s0.134 0.038 0.204 0.038c0.070 0 0.14-0.013 0.204-0.038s0.121-0.062 0.168-0.108v-0.009z"></path>
<path  d="M32.487 10.050h0.857l0.644 2.713 0.659-2.713h0.833l0.084 3.916h-0.616l-0.066-2.722-0.636 2.722h-0.494l-0.659-2.732-0.061 2.732h-0.623l0.077-3.916z"></path>
<path  d="M36.524 10.050h1.334c0.769 0 1.153 0.371 1.153 1.112 0 0.71-0.405 1.065-1.214 1.064h-0.455v1.74h-0.824l0.005-3.916zM37.664 11.723c0.081 0.009 0.164 0.002 0.242-0.019s0.15-0.057 0.211-0.105c0.094-0.132 0.136-0.288 0.119-0.442 0.004-0.119-0.009-0.239-0.040-0.355-0.012-0.039-0.032-0.075-0.061-0.107s-0.064-0.059-0.104-0.079c-0.114-0.047-0.241-0.069-0.367-0.063h-0.32v1.17h0.32z"></path>
<path  d="M40.199 10.050h0.885l0.908 3.916h-0.767l-0.18-0.903h-0.789l-0.184 0.903h-0.779l0.908-3.916zM40.955 12.609l-0.308-1.644-0.308 1.644h0.616z"></path>
<path  d="M42.724 10.050h0.577l1.104 2.234v-2.234h0.684v3.916h-0.548l-1.11-2.332v2.332h-0.707l0.002-3.916z"></path>
<path  d="M46.688 12.473l-0.917-2.417h0.773l0.56 1.553 0.525-1.553h0.756l-0.906 2.417v1.493h-0.791v-1.493z"></path>
<path  d="M27.175 15.678v0.205h-0.672v1.591h-0.282v-1.591h-0.675v-0.205h1.629z"></path>
<path  d="M29.281 17.474h-0.217c-0.022 0.001-0.044-0.005-0.061-0.017-0.016-0.010-0.029-0.025-0.036-0.041l-0.194-0.427h-0.932l-0.194 0.427c-0.006 0.018-0.016 0.034-0.030 0.048-0.017 0.012-0.039 0.018-0.061 0.017h-0.217l0.824-1.796h0.287l0.833 1.789zM27.917 16.807h0.777l-0.329-0.731c-0.024-0.055-0.045-0.112-0.061-0.169-0.012 0.034-0.021 0.067-0.031 0.095l-0.030 0.075-0.326 0.729z"></path>
<path  d="M30.701 17.298c0.052 0.002 0.103 0.002 0.155 0 0.045-0.004 0.089-0.011 0.132-0.021 0.040-0.009 0.080-0.020 0.119-0.033 0.036-0.013 0.073-0.028 0.11-0.044v-0.404h-0.329c-0.008 0-0.016-0.001-0.024-0.003s-0.015-0.006-0.020-0.011c-0.005-0.004-0.010-0.009-0.013-0.015s-0.004-0.012-0.004-0.018v-0.138h0.639v0.688c-0.052 0.032-0.107 0.061-0.165 0.085-0.059 0.025-0.12 0.045-0.183 0.061-0.067 0.017-0.136 0.029-0.206 0.037-0.080 0.008-0.16 0.011-0.24 0.011-0.142 0.001-0.283-0.022-0.415-0.067-0.123-0.043-0.235-0.107-0.329-0.188-0.092-0.082-0.164-0.179-0.212-0.284-0.052-0.119-0.078-0.245-0.076-0.373-0.002-0.128 0.023-0.255 0.074-0.375 0.047-0.106 0.12-0.203 0.212-0.284 0.094-0.081 0.206-0.144 0.329-0.186 0.141-0.046 0.291-0.068 0.441-0.067 0.077-0 0.153 0.005 0.229 0.016 0.067 0.009 0.133 0.025 0.196 0.046 0.058 0.019 0.113 0.043 0.165 0.071 0.050 0.028 0.098 0.059 0.143 0.094l-0.079 0.111c-0.006 0.010-0.015 0.019-0.027 0.025s-0.024 0.009-0.038 0.009c-0.018-0-0.036-0.005-0.051-0.014-0.025-0.011-0.051-0.026-0.081-0.043-0.035-0.019-0.072-0.035-0.11-0.048-0.049-0.017-0.1-0.030-0.151-0.040-0.069-0.011-0.139-0.016-0.209-0.016-0.109-0.001-0.217 0.016-0.318 0.050-0.092 0.032-0.174 0.080-0.242 0.142-0.068 0.065-0.12 0.141-0.153 0.223-0.074 0.195-0.074 0.404 0 0.599 0.036 0.084 0.092 0.161 0.165 0.226 0.068 0.062 0.15 0.11 0.241 0.142 0.105 0.031 0.216 0.043 0.326 0.036z"></path>
<path  d="M33.327 17.269h0.899v0.205h-1.174v-1.796h0.282l-0.007 1.591z"></path>
<path  d="M35.162 17.474h-0.282v-1.796h0.282v1.796z"></path>
<path  d="M36.209 15.687c0.017 0.008 0.031 0.019 0.043 0.033l1.204 1.354c-0.002-0.021-0.002-0.043 0-0.064 0-0.020 0-0.040 0-0.058v-1.28h0.245v1.803h-0.142c-0.021 0.001-0.042-0.002-0.061-0.010-0.017-0.009-0.032-0.020-0.044-0.034l-1.202-1.352c0 0.021 0 0.041 0 0.061s0 0.038 0 0.055v1.28h-0.236v-1.796h0.147c0.016 0 0.032 0.003 0.046 0.009z"></path>
<path  d="M39.775 15.678v0.198h-0.998v0.593h0.809v0.191h-0.809v0.613h0.998v0.198h-1.288v-1.792h1.288z"></path>
<path  d="M10.26 4.587l12.507 3.066v10.743l-12.507-3.064v-10.745zM9.458 3.671v12.182l14.109 3.46v-12.181l-14.109-3.461z"></path>
<path  d="M17.020 24.968l-14.111-3.463v-12.181l14.111 3.461v12.182z"></path>
<path  d="M9.692 4.449l12.344 3.027-5.249 4.533-12.345-3.029 5.251-4.532zM9.458 3.671l-6.549 5.654 14.111 3.461 6.547-5.654-14.109-3.461z"></path>
<path  d="M17.814 24.283l5.753-4.968-5.753-1.412v6.38z"></path>
</symbol>
<symbol id="icon-logo1" viewBox="0 0 51 32">
<path  d="M18.424 3.784l3.398 3.217-6.307-0.004v15.606h16.485v-5.967l3.394 3.213v-16.065h-16.97zM31.851 16.258l-9.634-9.12h9.634v9.12zM28.86 20.32h-10.736v-10.496h0.759v9.785h9.977v0.711zM20.659 24.68l-0.397 0.817-0.397-0.817h-0.333l0.579 1.089v0.634h0.301v-0.634l0.578-1.089h-0.331zM21.157 26.404l0.14-0.401h0.668l0.141 0.401h0.313l-0.652-1.724h-0.269l-0.651 1.724h0.311zM21.631 25.046l0.25 0.715h-0.5l0.25-0.715zM23.21 25.72c-0.043 0.066-0.065 0.139-0.065 0.219 0 0.145 0.051 0.263 0.153 0.354s0.239 0.135 0.41 0.135 0.317-0.046 0.44-0.139l0.097 0.115h0.334l-0.253-0.299c0.099-0.136 0.149-0.31 0.149-0.522h-0.25c0 0.116-0.024 0.221-0.072 0.316l-0.333-0.393 0.117-0.085c0.083-0.060 0.142-0.12 0.179-0.18s0.054-0.127 0.054-0.199c0-0.109-0.040-0.2-0.121-0.273s-0.182-0.111-0.308-0.111c-0.139 0-0.249 0.039-0.331 0.118s-0.123 0.185-0.123 0.32c0 0.055 0.013 0.113 0.039 0.172s0.074 0.131 0.141 0.215c-0.128 0.092-0.213 0.171-0.257 0.238zM23.987 26.101c-0.084 0.065-0.175 0.097-0.272 0.097-0.086 0-0.155-0.025-0.206-0.075s-0.077-0.114-0.077-0.194c0-0.092 0.047-0.174 0.142-0.246l0.037-0.026 0.376 0.444zM23.678 25.337c-0.081-0.1-0.122-0.183-0.122-0.25 0-0.058 0.017-0.105 0.050-0.143s0.078-0.057 0.134-0.057c0.052 0 0.095 0.016 0.129 0.049s0.051 0.070 0.051 0.115c0 0.068-0.024 0.123-0.073 0.167l-0.037 0.030-0.131 0.090zM26.484 26.274c0.118-0.103 0.186-0.247 0.204-0.431h-0.298c-0.016 0.123-0.053 0.211-0.112 0.264s-0.148 0.079-0.265 0.079c-0.129 0-0.226-0.049-0.294-0.147s-0.099-0.24-0.099-0.426v-0.153c0.002-0.184 0.037-0.323 0.107-0.418s0.17-0.143 0.301-0.143c0.112 0 0.197 0.028 0.255 0.083s0.095 0.144 0.109 0.268h0.298c-0.019-0.189-0.086-0.335-0.202-0.438s-0.269-0.155-0.459-0.155c-0.141 0-0.266 0.034-0.374 0.101s-0.19 0.163-0.247 0.287c-0.058 0.124-0.086 0.267-0.086 0.43v0.161c0.002 0.159 0.032 0.298 0.089 0.418s0.137 0.213 0.241 0.278c0.105 0.065 0.226 0.097 0.363 0.097 0.197 0 0.354-0.051 0.472-0.154zM28.244 26.032c0.058-0.128 0.088-0.276 0.088-0.445v-0.096c-0.001-0.168-0.031-0.315-0.090-0.442s-0.143-0.224-0.252-0.291c-0.108-0.068-0.232-0.102-0.373-0.102s-0.265 0.034-0.374 0.103c-0.108 0.068-0.192 0.166-0.252 0.295s-0.089 0.277-0.089 0.445v0.097c0.001 0.165 0.031 0.311 0.090 0.437s0.144 0.224 0.253 0.292c0.11 0.068 0.234 0.102 0.374 0.102 0.141 0 0.266-0.034 0.374-0.102s0.193-0.166 0.251-0.294zM27.923 25.058c0.073 0.102 0.109 0.248 0.109 0.439v0.090c0 0.194-0.036 0.342-0.108 0.443s-0.173 0.151-0.305 0.151c-0.131 0-0.234-0.052-0.308-0.155s-0.11-0.25-0.11-0.439v-0.099c0.002-0.185 0.039-0.329 0.111-0.43s0.175-0.153 0.304-0.153c0.133 0 0.235 0.051 0.307 0.153z"></path>
</symbol>
<symbol id="icon-smartphone" viewBox="0 0 20 32">
<path  d="M17 0h-14c-1.654 0-3 1.346-3 3v26c0 1.654 1.346 3 3 3h14c1.654 0 3-1.346 3-3v-26c0-1.654-1.346-3-3-3zM3 2h14c0.552 0 1 0.448 1 1v21h-16v-21c0-0.552 0.448-1 1-1zM17 30h-14c-0.552 0-1-0.448-1-1v-3h16v3c0 0.552-0.448 1-1 1z"></path>
<path  d="M4.707 27.478c0.391 0.365 0.391 0.956 0 1.321s-1.024 0.365-1.414 0c-0.391-0.365-0.391-0.956 0-1.321s1.024-0.365 1.414 0z"></path>
</symbol>
<symbol id="icon-twitter" viewBox="0 0 32 32">
<path  d="M32 6.078c-1.19 0.522-2.458 0.868-3.78 1.036 1.36-0.812 2.398-2.088 2.886-3.626-1.268 0.756-2.668 1.29-4.16 1.588-1.204-1.282-2.92-2.076-4.792-2.076-3.632 0-6.556 2.948-6.556 6.562 0 0.52 0.044 1.020 0.152 1.496-5.454-0.266-10.28-2.88-13.522-6.862-0.566 0.982-0.898 2.106-0.898 3.316 0 2.272 1.17 4.286 2.914 5.452-1.054-0.020-2.088-0.326-2.964-0.808 0 0.020 0 0.046 0 0.072 0 3.188 2.274 5.836 5.256 6.446-0.534 0.146-1.116 0.216-1.72 0.216-0.42 0-0.844-0.024-1.242-0.112 0.85 2.598 3.262 4.508 6.13 4.57-2.232 1.746-5.066 2.798-8.134 2.798-0.538 0-1.054-0.024-1.57-0.090 2.906 1.874 6.35 2.944 10.064 2.944 12.072 0 18.672-10 18.672-18.668 0-0.29-0.010-0.57-0.024-0.848 1.302-0.924 2.396-2.078 3.288-3.406z"></path>
</symbol>
</defs>
</svg>
